<svg xmlns="http://www.w3.org/2000/svg" xmlns:xlink="http://www.w3.org/1999/xlink" width="500" zoomAndPan="magnify" viewBox="0 0 375 374.999991" height="500" preserveAspectRatio="xMidYMid meet" version="1.0"><defs><g/><clipPath id="e964be3cce"><path d="M 44.09375 103 L 330.59375 103 L 330.59375 303 L 44.09375 303 Z M 44.09375 103 " clip-rule="nonzero"/></clipPath><clipPath id="508cbbf21d"><path d="M 44.09375 97 L 330.59375 97 L 330.59375 308 L 44.09375 308 Z M 44.09375 97 " clip-rule="nonzero"/></clipPath><clipPath id="cd86f6e6ff"><path d="M 44.09375 101 L 330.59375 101 L 330.59375 303 L 44.09375 303 Z M 44.09375 101 " clip-rule="nonzero"/></clipPath><clipPath id="280866f3a3"><path d="M 242 82 L 330.59375 82 L 330.59375 150 L 242 150 Z M 242 82 " clip-rule="nonzero"/></clipPath><clipPath id="48f8395e4d"><path d="M 240 92 L 330.59375 92 L 330.59375 160 L 240 160 Z M 240 92 " clip-rule="nonzero"/></clipPath><clipPath id="f7e285013b"><path d="M 238 102 L 330.59375 102 L 330.59375 171 L 238 171 Z M 238 102 " clip-rule="nonzero"/></clipPath><clipPath id="cbfd958614"><path d="M 233 113 L 330.59375 113 L 330.59375 181 L 233 181 Z M 233 113 " clip-rule="nonzero"/></clipPath><clipPath id="c5c839ad21"><path d="M 227 123 L 330.59375 123 L 330.59375 191 L 227 191 Z M 227 123 " clip-rule="nonzero"/></clipPath></defs><path stroke-linecap="butt" transform="matrix(0.736289, 0, 0, 0.737672, 37.547434, 93.737322)" fill-opacity="1" fill="#000000" fill-rule="evenodd" stroke-linejoin="miter" d="M 21.740457 253.210324 L 109.55948 273.586934 L 110.04757 277.468445 L 17.856961 262.91675 L 21.735152 253.210324 Z M 21.740457 253.210324 " stroke="#000000" stroke-width="1" stroke-opacity="1" stroke-miterlimit="4"/><g clip-path="url(#e964be3cce)"><path fill="#000000" d="M 44.621094 302.578125 L 150.894531 301.914062 C 199.074219 58.097656 299.441406 324.488281 330.042969 103.035156 L 274.78125 105.039062 C 269.898438 257.972656 121.742188 50.726562 44.621094 302.578125 Z M 44.621094 302.578125 " fill-opacity="1" fill-rule="evenodd"/></g><g clip-path="url(#508cbbf21d)"><path stroke-linecap="butt" transform="matrix(0.736289, 0, 0, 0.737672, 37.547434, 93.737322)" fill="none" stroke-linejoin="miter" d="M 9.607182 283.108021 L 153.943818 282.207807 C 219.379679 -48.313716 355.694665 312.809788 397.256571 12.604297 L 322.202157 15.320825 C 315.570503 222.640115 114.350187 -58.306091 9.607182 283.108021 Z M 9.607182 283.108021 " stroke="#000000" stroke-width="1.209" stroke-opacity="1" stroke-miterlimit="4"/></g><path fill="#ffffff" d="M 49.246094 297.222656 L 146.929688 296.945312 C 199.683594 58.019531 296.605469 317.753906 326.484375 106.597656 L 277.53125 108.148438 C 270.976562 257.554688 124.191406 58.867188 49.25 297.226562 Z M 49.246094 297.222656 " fill-opacity="1" fill-rule="evenodd"/><g clip-path="url(#cd86f6e6ff)"><path stroke-linecap="butt" transform="matrix(0.736289, 0, 0, 0.737672, 37.547434, 93.737322)" fill="none" stroke-linejoin="miter" d="M 15.888686 275.848059 L 148.558914 275.472088 C 220.20731 -48.419623 351.843 303.680559 392.423421 17.43368 L 325.937105 19.535945 C 317.034772 222.07351 117.676625 -47.270526 15.893991 275.853355 Z M 15.888686 275.848059 " stroke="#000000" stroke-width="1.167" stroke-opacity="1" stroke-miterlimit="4"/></g><path stroke-linecap="butt" transform="matrix(0.736289, 0, 0, 0.737672, 37.547434, 93.737322)" fill-opacity="1" fill="#000000" fill-rule="evenodd" stroke-linejoin="miter" d="M 21.655572 277.367833 L 139.985511 276.038693 C 207.867127 -52.264067 353.816581 291.9513 388.104887 16.406377 L 330.510294 17.449567 C 318.955299 233.421502 127.109491 -44.16214 21.650267 277.373128 Z M 21.655572 277.367833 " stroke="#000000" stroke-width="1.049" stroke-opacity="1" stroke-miterlimit="4"/><g clip-path="url(#280866f3a3)"><path stroke-linecap="butt" transform="matrix(0.736289, 0, 0, 0.737672, 37.547434, 93.737322)" fill="none" stroke-linejoin="miter" d="M 323.051009 30.015495 L 391.463157 29.528321 " stroke="#000000" stroke-width="8" stroke-opacity="1" stroke-miterlimit="4"/></g><g clip-path="url(#48f8395e4d)"><path stroke-linecap="butt" transform="matrix(0.736289, 0, 0, 0.737672, 36.118299, 104.117103)" fill="none" stroke-linejoin="miter" d="M 323.050258 30.01431 L 391.462406 29.527135 " stroke="#000000" stroke-width="8" stroke-opacity="1" stroke-miterlimit="4"/></g><g clip-path="url(#f7e285013b)"><path stroke-linecap="butt" transform="matrix(0.736289, 0, 0, 0.737672, 33.617862, 114.496881)" fill="none" stroke-linejoin="miter" d="M 323.050851 30.013127 L 391.463 29.531248 " stroke="#000000" stroke-width="8" stroke-opacity="1" stroke-miterlimit="4"/></g><g clip-path="url(#cbfd958614)"><path stroke-linecap="butt" transform="matrix(0.759703, 0, 0, 0.737672, 22.675343, 124.876662)" fill="none" stroke-linejoin="miter" d="M 323.050441 30.011941 L 391.46227 29.530062 " stroke="#000000" stroke-width="8" stroke-opacity="1" stroke-miterlimit="4"/></g><g clip-path="url(#c5c839ad21)"><path stroke-linecap="butt" transform="matrix(0.787608, 0.0117511, -0.0125464, 0.737576, 8.718131, 130.752824)" fill="none" stroke-linejoin="miter" d="M 323.048779 30.015207 L 391.464192 29.52896 " stroke="#000000" stroke-width="8" stroke-opacity="1" stroke-miterlimit="4"/></g><path stroke-linecap="butt" transform="matrix(0.736289, 0, 0, 0.737672, 37.547434, 93.737322)" fill-opacity="1" fill="#000000" fill-rule="evenodd" stroke-linejoin="miter" d="M 233.767717 101.820802 L 347.312254 134.816294 L 352.64941 130.447608 L 242.98837 101.333628 Z M 233.767717 101.820802 " stroke="#000000" stroke-width="1" stroke-opacity="1" stroke-miterlimit="4"/><path stroke-linecap="butt" transform="matrix(0.736289, 0, 0, 0.737672, 37.547434, 93.737322)" fill-opacity="1" fill="#000000" fill-rule="evenodd" stroke-linejoin="miter" d="M 260.941585 102.307977 L 361.859451 124.14611 L 364.772074 118.077608 L 269.186058 101.826098 L 260.93628 102.307977 Z M 260.941585 102.307977 " stroke="#000000" stroke-width="1" stroke-opacity="1" stroke-miterlimit="4"/><path stroke-linecap="butt" transform="matrix(0.736289, 0, 0, 0.737672, 37.547434, 93.737322)" fill-opacity="1" fill="#000000" fill-rule="evenodd" stroke-linejoin="miter" d="M 283.39902 99.782082 L 371.122546 108.201731 L 375.923864 99.040729 L 297.58015 95.238649 Z M 283.39902 99.782082 " stroke="#000000" stroke-width="1" stroke-opacity="1" stroke-miterlimit="4"/><path stroke-linecap="butt" transform="matrix(0.736289, 0, 0, 0.737672, 37.547434, 93.737322)" fill-opacity="1" fill="#000000" fill-rule="evenodd" stroke-linejoin="miter" d="M 227.947777 103.520618 L 332.271661 141.366675 L 340.760179 139.666859 L 232.802148 102.789856 Z M 227.947777 103.520618 " stroke="#000000" stroke-width="1" stroke-opacity="1" stroke-miterlimit="4"/><path stroke-linecap="butt" transform="matrix(0.736289, 0, 0, 0.737672, 37.547434, 93.737322)" fill-opacity="1" fill="#000000" fill-rule="evenodd" stroke-linejoin="miter" d="M 154.442518 104.982142 L 248.08148 128.271208 L 257.058088 128.027621 L 160.989287 103.525913 Z M 154.442518 104.982142 " stroke="#000000" stroke-width="1" stroke-opacity="1" stroke-miterlimit="4"/><path stroke-linecap="butt" transform="matrix(0.736289, 0, 0, 0.737672, 37.547434, 93.737322)" fill-opacity="1" fill="#000000" fill-rule="evenodd" stroke-linejoin="miter" d="M 182.831305 101.58251 L 269.679453 129.965729 L 285.696225 134.329119 L 192.051957 100.851748 L 182.831305 101.577215 Z M 182.831305 101.58251 " stroke="#000000" stroke-width="1" stroke-opacity="1" stroke-miterlimit="4"/><path stroke-linecap="butt" transform="matrix(0.736289, 0, 0, 0.737672, 37.547434, 93.737322)" fill-opacity="1" fill="#000000" fill-rule="evenodd" stroke-linejoin="miter" d="M 207.09255 101.58251 L 301.946431 137.485164 L 320.382431 140.641208 L 211.214786 101.338923 L 207.09255 101.577215 Z M 207.09255 101.58251 " stroke="#000000" stroke-width="1" stroke-opacity="1" stroke-miterlimit="4"/><path stroke-linecap="butt" transform="matrix(0.736289, 0, 0, 0.737672, 37.547434, 93.737322)" fill-opacity="1" fill="#000000" fill-rule="evenodd" stroke-linejoin="miter" d="M 235.231986 130.940078 L 145.954 107.163837 L 133.820725 110.563469 L 221.645053 135.308764 Z M 235.231986 130.940078 " stroke="#000000" stroke-width="1" stroke-opacity="1" stroke-miterlimit="4"/><path stroke-linecap="butt" transform="matrix(0.736289, 0, 0, 0.737672, 37.547434, 93.737322)" fill-opacity="1" fill="#000000" fill-rule="evenodd" stroke-linejoin="miter" d="M 214.360843 140.641208 L 126.053731 113.470631 L 112.954887 120.259304 L 206.111065 145.978948 Z M 214.360843 140.641208 " stroke="#000000" stroke-width="1" stroke-opacity="1" stroke-miterlimit="4"/><path stroke-linecap="butt" transform="matrix(0.736289, 0, 0, 0.737672, 37.547434, 93.737322)" fill-opacity="1" fill="#000000" fill-rule="evenodd" stroke-linejoin="miter" d="M 199.320251 152.767621 L 107.617731 126.571393 L 99.367953 130.452904 L 191.070472 158.10536 L 199.320251 152.772916 Z M 199.320251 152.767621 " stroke="#000000" stroke-width="1" stroke-opacity="1" stroke-miterlimit="4"/><path stroke-linecap="butt" transform="matrix(0.736289, 0, 0, 0.737672, 37.547434, 93.737322)" fill-opacity="1" fill="#000000" fill-rule="evenodd" stroke-linejoin="miter" d="M 188.15785 167.329906 L 87.717462 139.190275 L 82.868397 145.497069 L 185.250532 173.154821 Z M 188.15785 167.329906 " stroke="#000000" stroke-width="1" stroke-opacity="1" stroke-miterlimit="4"/><path stroke-linecap="butt" transform="matrix(0.736289, 0, 0, 0.737672, 37.547434, 93.737322)" fill-opacity="1" fill="#000000" fill-rule="evenodd" stroke-linejoin="miter" d="M 74.141139 156.172548 L 177.488844 183.825005 L 176.035185 192.075201 L 66.862235 161.992167 Z M 74.141139 156.172548 " stroke="#000000" stroke-width="1" stroke-opacity="1" stroke-miterlimit="4"/><path stroke-linecap="butt" transform="matrix(0.736289, 0, 0, 0.737672, 37.547434, 93.737322)" fill-opacity="1" fill="#000000" fill-rule="evenodd" stroke-linejoin="miter" d="M 62.495954 170.718947 L 170.215245 204.683493 L 166.819838 215.358972 L 57.646888 178.969144 L 62.501259 170.718947 Z M 62.495954 170.718947 " stroke="#000000" stroke-width="1" stroke-opacity="1" stroke-miterlimit="4"/><path stroke-linecap="butt" transform="matrix(0.736289, 0, 0, 0.737672, 37.547434, 93.737322)" fill-opacity="1" fill="#000000" fill-rule="evenodd" stroke-linejoin="miter" d="M 49.879894 191.588027 L 160.018413 227.977855 L 157.59388 238.171455 L 44.542739 198.86917 Z M 49.879894 191.588027 " stroke="#000000" stroke-width="1" stroke-opacity="1" stroke-miterlimit="4"/><path stroke-linecap="butt" transform="matrix(0.736289, 0, 0, 0.737672, 37.547434, 93.737322)" fill-opacity="1" fill="#000000" fill-rule="evenodd" stroke-linejoin="miter" d="M 38.234709 211.000877 C 77.048457 225.070693 115.86751 246.972371 154.686563 253.21562 L 153.715689 260.978642 C 105.845753 253.157371 74.788389 234.125787 35.322086 220.702007 Z M 38.234709 211.000877 " stroke="#000000" stroke-width="1" stroke-opacity="1" stroke-miterlimit="4"/><path stroke-linecap="butt" transform="matrix(0.736289, 0, 0, 0.737672, 37.547434, 93.737322)" fill-opacity="1" fill="#000000" fill-rule="evenodd" stroke-linejoin="miter" d="M 29.98493 232.341245 C 70.098483 246.246904 101.675769 268.68871 150.314976 274.068813 L 150.314976 277.950324 L 26.106739 242.52955 L 29.990236 232.341245 Z M 29.98493 232.341245 " stroke="#000000" stroke-width="1" stroke-opacity="1" stroke-miterlimit="4"/><path stroke-linecap="butt" transform="matrix(0.736289, 0, 0, 0.737672, 37.547434, 93.737322)" fill="none" stroke-linejoin="miter" d="M 27.560398 276.499391 L 136.733348 275.530337 C 139.285208 255.995692 143.099736 241.491656 146.919569 227.008801 L 47.455361 223.614464 C 39.905886 237.567782 33.884343 257.637259 27.560398 276.499391 Z M 27.560398 276.499391 " stroke="#ffffff" stroke-width="1" stroke-opacity="0.9412" stroke-miterlimit="4"/><path stroke-linecap="butt" transform="matrix(0.736289, 0, 0, 0.737672, 37.547434, 93.737322)" fill="none" stroke-linejoin="miter" d="M 51.333553 216.328026 L 148.861317 219.240483 C 153.768742 202.448844 160.803601 186.721576 168.268191 171.206122 L 82.873702 163.930275 C 65.265333 187.605903 58.99444 201.357997 51.333553 216.328026 Z M 51.333553 216.328026 " stroke="#ffffff" stroke-width="1" stroke-opacity="0.9412" stroke-miterlimit="4"/><path stroke-linecap="butt" transform="matrix(0.736289, 0, 0, 0.737672, 37.547434, 93.737322)" fill="none" stroke-linejoin="miter" d="M 51.333553 216.328026 L 148.861317 219.240483 C 153.768742 202.448844 160.803601 186.721576 168.268191 171.206122 L 82.873702 163.930275 C 65.265333 187.605903 58.99444 201.357997 51.333553 216.328026 Z M 51.333553 216.328026 " stroke="#ffffff" stroke-width="1" stroke-opacity="0.9412" stroke-miterlimit="4"/><path stroke-linecap="butt" transform="matrix(0.736289, 0, 0, 0.737672, 37.547434, 93.737322)" fill="none" stroke-linejoin="miter" d="M 85.786325 159.07971 L 170.20994 166.355557 C 181.913484 145.200527 198.646475 135.292878 210.482652 126.571393 L 147.890443 116.864967 C 128.828415 122.589269 97.325404 145.565908 85.786325 159.07971 Z M 85.786325 159.07971 " stroke="#ffffff" stroke-width="1" stroke-opacity="0.9412" stroke-miterlimit="4"/><path stroke-linecap="butt" transform="matrix(0.736289, 0, 0, 0.737672, 37.547434, 93.737322)" fill="none" stroke-linejoin="miter" d="M 156.060642 114.439685 L 214.286569 124.627989 C 235.688244 118.511829 234.95611 116.367202 265.716376 120.746478 L 220.106509 110.070999 C 201.044481 110.944736 180.70387 109.170785 156.060642 114.439685 Z M 156.060642 114.439685 " stroke="#ffffff" stroke-width="1" stroke-opacity="0.9412" stroke-miterlimit="4"/><path stroke-linecap="butt" transform="matrix(0.736289, 0, 0, 0.737672, 37.547434, 93.737322)" fill="none" stroke-linejoin="miter" d="M 237.651214 110.070999 L 289.081022 125.597043 C 321.67693 131.252505 332.245135 131.464321 351.190446 115.408739 L 303.15074 100.364574 C 289.277319 109.853889 269.589262 114.773293 237.651214 110.070999 Z M 237.651214 110.070999 " stroke="#ffffff" stroke-width="1" stroke-opacity="1" stroke-miterlimit="4"/><path stroke-linecap="butt" transform="matrix(0.736289, 0, 0, 0.737672, 37.547434, 93.737322)" fill="none" stroke-linejoin="miter" d="M 306.551452 97.457412 L 354.585853 112.014402 C 363.021317 101.958482 370.156978 87.867485 374.475511 71.255888 L 325.958326 65.436269 C 321.454106 79.034797 318.461904 85.002686 306.551452 97.457412 Z M 306.551452 97.457412 " stroke="#ffffff" stroke-width="1" stroke-opacity="0.9412" stroke-miterlimit="4"/><path stroke-linecap="butt" transform="matrix(0.736289, 0, 0, 0.737672, 37.547434, 93.737322)" fill="none" stroke-linejoin="miter" d="M 327.422596 60.580409 L 375.93978 64.949095 C 381.038196 47.09838 382.926892 33.52633 384.189559 20.796245 L 333.242536 21.278124 C 332.526317 35.607413 330.722507 48.840559 327.422596 60.580409 Z M 327.422596 60.580409 " stroke="#ffffff" stroke-width="1" stroke-opacity="1" stroke-miterlimit="4"/><g fill="#ffc1b2" fill-opacity="0.302"><g transform="translate(2.808839, 220.250983)"><g><path d="M 40.839844 -27.660156 C 40.621094 -27.824219 40.511719 -28.042969 40.511719 -28.316406 C 40.457031 -28.53125 40.511719 -28.75 40.675781 -28.96875 C 41.601562 -30.273438 42.308594 -31.691406 42.796875 -33.214844 C 43.234375 -34.738281 43.507812 -36.265625 43.507812 -37.84375 C 43.507812 -39.804688 43.070312 -41.820312 42.308594 -43.777344 C 41.492188 -45.738281 40.292969 -47.480469 38.714844 -49.007812 C 37.136719 -50.53125 35.175781 -51.730469 32.835938 -52.707031 C 30.492188 -53.632812 27.769531 -54.125 24.722656 -54.125 L 7.351562 -54.125 C 6.96875 -54.125 6.699219 -53.960938 6.589844 -53.632812 C 6.425781 -53.308594 6.480469 -52.980469 6.75 -52.761719 C 7.730469 -51.675781 8.277344 -50.367188 8.277344 -48.898438 L 8.277344 -5.226562 C 8.277344 -3.703125 7.730469 -2.394531 6.75 -1.308594 C 6.535156 -0.980469 6.535156 -0.707031 6.699219 -0.4375 C 6.804688 -0.109375 7.078125 0 7.460938 0 L 27.171875 0 C 30.21875 0 32.941406 -0.4375 35.285156 -1.359375 C 37.625 -2.285156 39.585938 -3.539062 41.164062 -5.0625 C 42.746094 -6.589844 43.941406 -8.277344 44.757812 -10.238281 C 45.519531 -12.144531 45.957031 -14.101562 45.957031 -16.171875 C 45.957031 -18.351562 45.464844 -20.417969 44.59375 -22.378906 C 43.722656 -24.339844 42.472656 -26.136719 40.839844 -27.660156 Z M 19.058594 -34.304688 L 19.058594 -41.4375 C 19.058594 -41.925781 19.222656 -42.363281 19.601562 -42.746094 C 19.984375 -43.070312 20.417969 -43.289062 20.964844 -43.289062 L 24.722656 -43.289062 C 26.082031 -43.289062 27.28125 -43.125 28.316406 -42.796875 C 29.292969 -42.472656 30.164062 -42.089844 30.820312 -41.601562 C 31.472656 -41.054688 31.910156 -40.511719 32.234375 -39.859375 C 32.5625 -39.203125 32.726562 -38.496094 32.726562 -37.84375 C 32.726562 -36.480469 32.179688 -35.339844 31.144531 -34.414062 C 29.730469 -33.105469 27.550781 -32.453125 24.722656 -32.453125 L 20.964844 -32.453125 C 20.417969 -32.453125 19.984375 -32.617188 19.601562 -32.996094 C 19.222656 -33.324219 19.058594 -33.757812 19.058594 -34.304688 Z M 33.597656 -12.742188 C 32.179688 -11.433594 30.003906 -10.78125 27.171875 -10.78125 L 20.964844 -10.78125 C 20.417969 -10.78125 19.984375 -10.945312 19.601562 -11.324219 C 19.222656 -11.652344 19.058594 -12.144531 19.058594 -12.6875 L 19.058594 -19.765625 C 19.058594 -20.253906 19.222656 -20.691406 19.601562 -21.074219 C 19.984375 -21.453125 20.417969 -21.671875 20.964844 -21.671875 L 27.171875 -21.671875 C 28.53125 -21.671875 29.730469 -21.507812 30.710938 -21.179688 C 31.691406 -20.855469 32.5625 -20.417969 33.214844 -19.929688 C 33.867188 -19.382812 34.359375 -18.839844 34.683594 -18.1875 C 35.011719 -17.535156 35.175781 -16.824219 35.175781 -16.171875 C 35.175781 -14.863281 34.632812 -13.722656 33.597656 -12.742188 Z M 33.597656 -12.742188 "/></g></g></g><g fill="#ffc1b2" fill-opacity="0.302"><g transform="translate(53.1213, 220.250983)"><g><path d="M 41.164062 -45.628906 C 39.097656 -48.351562 36.644531 -50.421875 33.921875 -51.890625 C 31.144531 -53.308594 28.261719 -54.070312 25.210938 -54.070312 C 22.160156 -54.070312 19.222656 -53.308594 16.445312 -51.890625 C 13.667969 -50.421875 11.269531 -48.351562 9.203125 -45.628906 C 7.242188 -43.070312 5.773438 -40.183594 4.792969 -37.027344 C 3.757812 -33.867188 3.265625 -30.492188 3.265625 -27.007812 C 3.265625 -23.523438 3.757812 -20.148438 4.792969 -16.988281 C 5.773438 -13.777344 7.242188 -10.945312 9.203125 -8.441406 C 11.269531 -5.71875 13.667969 -3.59375 16.445312 -2.179688 C 19.222656 -0.707031 22.160156 0 25.210938 0 C 28.261719 0 31.144531 -0.707031 33.921875 -2.179688 C 36.644531 -3.59375 39.097656 -5.71875 41.164062 -8.441406 C 43.125 -10.945312 44.59375 -13.777344 45.628906 -16.988281 C 46.609375 -20.148438 47.15625 -23.523438 47.15625 -27.007812 C 47.15625 -30.492188 46.609375 -33.867188 45.628906 -37.027344 C 44.59375 -40.183594 43.125 -43.070312 41.164062 -45.628906 Z M 25.210938 -10.78125 C 23.6875 -10.78125 22.214844 -11.21875 20.910156 -12.089844 C 19.546875 -12.960938 18.351562 -14.101562 17.371094 -15.574219 C 16.335938 -17.042969 15.519531 -18.785156 14.917969 -20.746094 C 14.320312 -22.707031 14.046875 -24.773438 14.046875 -27.007812 C 14.046875 -29.1875 14.320312 -31.308594 14.917969 -33.269531 C 15.519531 -35.230469 16.335938 -36.917969 17.371094 -38.441406 C 18.351562 -39.914062 19.546875 -41.109375 20.910156 -41.980469 C 22.214844 -42.851562 23.6875 -43.289062 25.210938 -43.289062 C 26.734375 -43.289062 28.152344 -42.851562 29.511719 -41.980469 C 30.820312 -41.109375 32.015625 -39.914062 32.996094 -38.441406 C 33.976562 -36.917969 34.792969 -35.230469 35.394531 -33.269531 C 35.992188 -31.308594 36.320312 -29.1875 36.320312 -27.007812 C 36.320312 -24.773438 35.992188 -22.707031 35.394531 -20.746094 C 34.792969 -18.785156 33.976562 -17.042969 32.996094 -15.574219 C 32.015625 -14.101562 30.820312 -12.960938 29.511719 -12.089844 C 28.152344 -11.21875 26.734375 -10.78125 25.210938 -10.78125 Z M 25.210938 -10.78125 "/></g></g></g><g fill="#ffc1b2" fill-opacity="0.302"><g transform="translate(103.542662, 220.250983)"><g><path d="M 41.164062 -45.628906 C 39.097656 -48.351562 36.644531 -50.421875 33.921875 -51.890625 C 31.144531 -53.308594 28.261719 -54.070312 25.210938 -54.070312 C 22.160156 -54.070312 19.222656 -53.308594 16.445312 -51.890625 C 13.667969 -50.421875 11.269531 -48.351562 9.203125 -45.628906 C 7.242188 -43.070312 5.773438 -40.183594 4.792969 -37.027344 C 3.757812 -33.867188 3.265625 -30.492188 3.265625 -27.007812 C 3.265625 -23.523438 3.757812 -20.148438 4.792969 -16.988281 C 5.773438 -13.777344 7.242188 -10.945312 9.203125 -8.441406 C 11.269531 -5.71875 13.667969 -3.59375 16.445312 -2.179688 C 19.222656 -0.707031 22.160156 0 25.210938 0 C 28.261719 0 31.144531 -0.707031 33.921875 -2.179688 C 36.644531 -3.59375 39.097656 -5.71875 41.164062 -8.441406 C 43.125 -10.945312 44.59375 -13.777344 45.628906 -16.988281 C 46.609375 -20.148438 47.15625 -23.523438 47.15625 -27.007812 C 47.15625 -30.492188 46.609375 -33.867188 45.628906 -37.027344 C 44.59375 -40.183594 43.125 -43.070312 41.164062 -45.628906 Z M 25.210938 -10.78125 C 23.6875 -10.78125 22.214844 -11.21875 20.910156 -12.089844 C 19.546875 -12.960938 18.351562 -14.101562 17.371094 -15.574219 C 16.335938 -17.042969 15.519531 -18.785156 14.917969 -20.746094 C 14.320312 -22.707031 14.046875 -24.773438 14.046875 -27.007812 C 14.046875 -29.1875 14.320312 -31.308594 14.917969 -33.269531 C 15.519531 -35.230469 16.335938 -36.917969 17.371094 -38.441406 C 18.351562 -39.914062 19.546875 -41.109375 20.910156 -41.980469 C 22.214844 -42.851562 23.6875 -43.289062 25.210938 -43.289062 C 26.734375 -43.289062 28.152344 -42.851562 29.511719 -41.980469 C 30.820312 -41.109375 32.015625 -39.914062 32.996094 -38.441406 C 33.976562 -36.917969 34.792969 -35.230469 35.394531 -33.269531 C 35.992188 -31.308594 36.320312 -29.1875 36.320312 -27.007812 C 36.320312 -24.773438 35.992188 -22.707031 35.394531 -20.746094 C 34.792969 -18.785156 33.976562 -17.042969 32.996094 -15.574219 C 32.015625 -14.101562 30.820312 -12.960938 29.511719 -12.089844 C 28.152344 -11.21875 26.734375 -10.78125 25.210938 -10.78125 Z M 25.210938 -10.78125 "/></g></g></g><g fill="#ffc1b2" fill-opacity="0.302"><g transform="translate(153.964023, 220.250983)"><g><path d="M 39.585938 -12.035156 L 38.933594 -11.488281 C 38.332031 -10.945312 37.679688 -10.726562 36.972656 -10.726562 L 20.09375 -10.726562 C 19.710938 -10.726562 19.382812 -10.835938 19.167969 -11.054688 C 18.894531 -11.269531 18.785156 -11.597656 18.785156 -12.035156 L 18.785156 -49.277344 C 18.785156 -50.53125 19.222656 -51.675781 20.09375 -52.65625 L 20.148438 -52.707031 C 20.308594 -52.980469 20.308594 -53.253906 20.203125 -53.578125 C 20.039062 -53.851562 19.765625 -54.015625 19.4375 -54.015625 L 7.40625 -54.015625 C 7.023438 -54.015625 6.75 -53.851562 6.644531 -53.578125 C 6.480469 -53.253906 6.480469 -52.980469 6.699219 -52.707031 C 7.570312 -51.730469 8.003906 -50.585938 8.003906 -49.332031 L 8.003906 -1.199219 C 8.003906 -0.816406 8.113281 -0.488281 8.386719 -0.273438 C 8.601562 0 8.929688 0.109375 9.3125 0.109375 L 36.972656 0.109375 C 37.679688 0.109375 38.332031 0.382812 38.933594 0.871094 L 39.585938 1.414062 C 39.859375 1.632812 40.128906 1.632812 40.457031 1.46875 C 40.730469 1.359375 40.894531 1.089844 40.894531 0.707031 L 40.894531 -11.324219 C 40.894531 -11.652344 40.730469 -11.925781 40.457031 -12.089844 C 40.128906 -12.195312 39.859375 -12.195312 39.585938 -12.035156 Z M 39.585938 -12.035156 "/></g></g></g><g fill="#ffc1b2" fill-opacity="0.302"><g transform="translate(198.178011, 220.250983)"><g><path d="M 39.585938 -55.429688 C 38.605469 -54.558594 37.515625 -54.125 36.210938 -54.125 L 7.40625 -54.125 C 7.023438 -54.125 6.75 -53.960938 6.644531 -53.632812 C 6.480469 -53.308594 6.480469 -53.035156 6.699219 -52.761719 L 6.75 -52.707031 C 7.625 -51.730469 8.058594 -50.585938 8.058594 -49.332031 L 8.058594 -4.738281 C 8.058594 -3.429688 7.625 -2.339844 6.75 -1.359375 L 6.699219 -1.308594 C 6.480469 -0.980469 6.480469 -0.707031 6.644531 -0.4375 C 6.75 -0.109375 7.023438 0 7.40625 0 L 19.4375 0 C 19.765625 0 20.039062 -0.109375 20.203125 -0.4375 C 20.308594 -0.707031 20.308594 -0.980469 20.148438 -1.308594 C 19.277344 -2.285156 18.839844 -3.375 18.839844 -4.683594 L 18.839844 -20.527344 C 18.839844 -20.800781 18.949219 -21.074219 19.167969 -21.289062 C 19.382812 -21.507812 19.65625 -21.671875 19.984375 -21.671875 L 25.046875 -21.671875 C 26.355469 -21.671875 27.445312 -21.179688 28.367188 -20.308594 L 28.421875 -20.308594 C 28.695312 -20.09375 28.96875 -20.09375 29.292969 -20.253906 C 29.621094 -20.363281 29.785156 -20.636719 29.785156 -21.019531 L 29.785156 -33.050781 C 29.785156 -33.378906 29.621094 -33.652344 29.292969 -33.8125 C 28.96875 -33.976562 28.695312 -33.976562 28.421875 -33.757812 C 27.445312 -32.886719 26.355469 -32.453125 25.046875 -32.453125 L 19.984375 -32.453125 C 19.65625 -32.453125 19.382812 -32.5625 19.167969 -32.78125 C 18.949219 -32.996094 18.839844 -33.269531 18.839844 -33.597656 L 18.839844 -42.144531 C 18.839844 -42.472656 18.949219 -42.746094 19.167969 -42.960938 C 19.382812 -43.179688 19.65625 -43.289062 19.984375 -43.289062 L 36.210938 -43.289062 C 37.515625 -43.289062 38.605469 -42.851562 39.585938 -41.980469 C 39.859375 -41.765625 40.128906 -41.765625 40.457031 -41.925781 C 40.785156 -42.035156 40.949219 -42.308594 40.949219 -42.691406 L 40.949219 -54.722656 C 40.949219 -55.050781 40.785156 -55.324219 40.457031 -55.484375 C 40.128906 -55.59375 39.859375 -55.59375 39.585938 -55.429688 Z M 39.585938 -55.429688 "/></g></g></g><g fill="#ffc1b2" fill-opacity="0.302"><g transform="translate(242.446446, 220.250983)"><g><path d="M 39.585938 -12.035156 L 38.933594 -11.488281 C 38.332031 -10.945312 37.679688 -10.726562 36.972656 -10.726562 L 20.09375 -10.726562 C 19.710938 -10.726562 19.382812 -10.835938 19.167969 -11.054688 C 18.894531 -11.269531 18.785156 -11.597656 18.785156 -12.035156 L 18.785156 -49.277344 C 18.785156 -50.53125 19.222656 -51.675781 20.09375 -52.65625 L 20.148438 -52.707031 C 20.308594 -52.980469 20.308594 -53.253906 20.203125 -53.578125 C 20.039062 -53.851562 19.765625 -54.015625 19.4375 -54.015625 L 7.40625 -54.015625 C 7.023438 -54.015625 6.75 -53.851562 6.644531 -53.578125 C 6.480469 -53.253906 6.480469 -52.980469 6.699219 -52.707031 C 7.570312 -51.730469 8.003906 -50.585938 8.003906 -49.332031 L 8.003906 -1.199219 C 8.003906 -0.816406 8.113281 -0.488281 8.386719 -0.273438 C 8.601562 0 8.929688 0.109375 9.3125 0.109375 L 36.972656 0.109375 C 37.679688 0.109375 38.332031 0.382812 38.933594 0.871094 L 39.585938 1.414062 C 39.859375 1.632812 40.128906 1.632812 40.457031 1.46875 C 40.730469 1.359375 40.894531 1.089844 40.894531 0.707031 L 40.894531 -11.324219 C 40.894531 -11.652344 40.730469 -11.925781 40.457031 -12.089844 C 40.128906 -12.195312 39.859375 -12.195312 39.585938 -12.035156 Z M 39.585938 -12.035156 "/></g></g></g><g fill="#ffc1b2" fill-opacity="0.302"><g transform="translate(286.660421, 220.250983)"><g><path d="M 18.839844 -4.792969 L 18.839844 -49.332031 C 18.839844 -50.640625 19.277344 -51.78125 20.148438 -52.761719 C 20.308594 -53.035156 20.308594 -53.308594 20.203125 -53.632812 C 20.039062 -53.960938 19.765625 -54.125 19.4375 -54.125 L 7.40625 -54.125 C 7.023438 -54.125 6.75 -53.960938 6.644531 -53.632812 C 6.480469 -53.308594 6.480469 -53.035156 6.699219 -52.761719 C 7.570312 -51.78125 8.058594 -50.640625 8.058594 -49.332031 L 8.058594 -4.792969 C 8.058594 -3.484375 7.570312 -2.339844 6.699219 -1.359375 C 6.480469 -1.035156 6.480469 -0.761719 6.644531 -0.4375 C 6.75 -0.109375 7.023438 0 7.40625 0 L 19.4375 0 C 19.765625 0 20.039062 -0.109375 20.203125 -0.4375 C 20.308594 -0.761719 20.308594 -1.035156 20.148438 -1.359375 C 19.710938 -1.796875 19.382812 -2.339844 19.167969 -2.941406 C 18.949219 -3.539062 18.839844 -4.136719 18.839844 -4.792969 Z M 18.839844 -4.792969 "/></g></g></g><g fill="#ffc1b2" fill-opacity="0.302"><g transform="translate(313.559061, 220.250983)"><g><path d="M 49.167969 -1.523438 C 47.753906 -2.613281 46.609375 -3.921875 45.792969 -5.554688 L 35.773438 -24.667969 C 34.957031 -26.246094 34.957031 -27.824219 35.773438 -29.457031 L 45.792969 -48.570312 C 46.609375 -50.148438 47.753906 -51.511719 49.167969 -52.601562 C 49.550781 -52.925781 49.660156 -53.253906 49.441406 -53.632812 C 49.277344 -53.960938 49.007812 -54.125 48.679688 -54.125 L 35.230469 -54.125 C 34.847656 -54.125 34.578125 -53.960938 34.46875 -53.632812 C 34.304688 -53.308594 34.304688 -53.035156 34.523438 -52.761719 C 35.066406 -52.164062 35.121094 -51.511719 34.792969 -50.804688 L 27.933594 -37.679688 C 27.605469 -37.027344 27.0625 -36.753906 26.410156 -36.753906 C 25.699219 -36.753906 25.210938 -37.027344 24.882812 -37.679688 L 18.023438 -50.859375 C 17.804688 -51.128906 17.75 -51.457031 17.804688 -51.835938 C 17.859375 -52.164062 18.023438 -52.492188 18.296875 -52.761719 C 18.511719 -53.035156 18.511719 -53.308594 18.40625 -53.632812 C 18.296875 -53.960938 18.023438 -54.125 17.695312 -54.125 L 4.136719 -54.125 C 3.757812 -54.125 3.484375 -53.960938 3.375 -53.632812 C 3.265625 -53.417969 3.210938 -53.253906 3.265625 -53.089844 C 3.320312 -52.871094 3.429688 -52.707031 3.59375 -52.601562 L 3.648438 -52.601562 C 5.0625 -51.511719 6.152344 -50.148438 7.023438 -48.570312 L 17.042969 -29.457031 C 17.804688 -27.824219 17.804688 -26.246094 17.042969 -24.667969 L 7.023438 -5.554688 C 6.152344 -3.921875 5.0625 -2.613281 3.648438 -1.523438 L 3.59375 -1.523438 C 3.429688 -1.359375 3.320312 -1.199219 3.265625 -1.035156 C 3.210938 -0.816406 3.265625 -0.652344 3.375 -0.488281 C 3.484375 -0.164062 3.757812 0 4.136719 0 L 17.695312 0 C 18.023438 0 18.296875 -0.109375 18.40625 -0.4375 C 18.511719 -0.761719 18.511719 -1.035156 18.296875 -1.359375 C 18.023438 -1.578125 17.859375 -1.90625 17.804688 -2.285156 C 17.75 -2.613281 17.804688 -2.941406 18.023438 -3.265625 L 24.882812 -16.445312 C 25.210938 -17.042969 25.699219 -17.371094 26.410156 -17.371094 C 27.0625 -17.371094 27.605469 -17.042969 27.933594 -16.445312 L 34.792969 -3.320312 C 35.121094 -2.558594 35.066406 -1.90625 34.523438 -1.359375 C 34.304688 -1.035156 34.304688 -0.761719 34.46875 -0.4375 C 34.578125 -0.109375 34.847656 0 35.230469 0 L 48.679688 0 C 49.007812 0 49.277344 -0.164062 49.441406 -0.488281 C 49.660156 -0.816406 49.550781 -1.199219 49.167969 -1.523438 Z M 49.167969 -1.523438 "/></g></g></g><g fill="#ffc1b2" fill-opacity="0.502"><g transform="translate(4.249953, 220.862699)"><g><path d="M 40.839844 -27.660156 C 40.621094 -27.824219 40.511719 -28.042969 40.511719 -28.316406 C 40.457031 -28.53125 40.511719 -28.75 40.675781 -28.96875 C 41.601562 -30.273438 42.308594 -31.691406 42.796875 -33.214844 C 43.234375 -34.738281 43.507812 -36.265625 43.507812 -37.84375 C 43.507812 -39.804688 43.070312 -41.820312 42.308594 -43.777344 C 41.492188 -45.738281 40.292969 -47.480469 38.714844 -49.007812 C 37.136719 -50.53125 35.175781 -51.730469 32.835938 -52.707031 C 30.492188 -53.632812 27.769531 -54.125 24.722656 -54.125 L 7.351562 -54.125 C 6.96875 -54.125 6.699219 -53.960938 6.589844 -53.632812 C 6.425781 -53.308594 6.480469 -52.980469 6.75 -52.761719 C 7.730469 -51.675781 8.277344 -50.367188 8.277344 -48.898438 L 8.277344 -5.226562 C 8.277344 -3.703125 7.730469 -2.394531 6.75 -1.308594 C 6.535156 -0.980469 6.535156 -0.707031 6.699219 -0.4375 C 6.804688 -0.109375 7.078125 0 7.460938 0 L 27.171875 0 C 30.21875 0 32.941406 -0.4375 35.285156 -1.359375 C 37.625 -2.285156 39.585938 -3.539062 41.164062 -5.0625 C 42.746094 -6.589844 43.941406 -8.277344 44.757812 -10.238281 C 45.519531 -12.144531 45.957031 -14.101562 45.957031 -16.171875 C 45.957031 -18.351562 45.464844 -20.417969 44.59375 -22.378906 C 43.722656 -24.339844 42.472656 -26.136719 40.839844 -27.660156 Z M 19.058594 -34.304688 L 19.058594 -41.4375 C 19.058594 -41.925781 19.222656 -42.363281 19.601562 -42.746094 C 19.984375 -43.070312 20.417969 -43.289062 20.964844 -43.289062 L 24.722656 -43.289062 C 26.082031 -43.289062 27.28125 -43.125 28.316406 -42.796875 C 29.292969 -42.472656 30.164062 -42.089844 30.820312 -41.601562 C 31.472656 -41.054688 31.910156 -40.511719 32.234375 -39.859375 C 32.5625 -39.203125 32.726562 -38.496094 32.726562 -37.84375 C 32.726562 -36.480469 32.179688 -35.339844 31.144531 -34.414062 C 29.730469 -33.105469 27.550781 -32.453125 24.722656 -32.453125 L 20.964844 -32.453125 C 20.417969 -32.453125 19.984375 -32.617188 19.601562 -32.996094 C 19.222656 -33.324219 19.058594 -33.757812 19.058594 -34.304688 Z M 33.597656 -12.742188 C 32.179688 -11.433594 30.003906 -10.78125 27.171875 -10.78125 L 20.964844 -10.78125 C 20.417969 -10.78125 19.984375 -10.945312 19.601562 -11.324219 C 19.222656 -11.652344 19.058594 -12.144531 19.058594 -12.6875 L 19.058594 -19.765625 C 19.058594 -20.253906 19.222656 -20.691406 19.601562 -21.074219 C 19.984375 -21.453125 20.417969 -21.671875 20.964844 -21.671875 L 27.171875 -21.671875 C 28.53125 -21.671875 29.730469 -21.507812 30.710938 -21.179688 C 31.691406 -20.855469 32.5625 -20.417969 33.214844 -19.929688 C 33.867188 -19.382812 34.359375 -18.839844 34.683594 -18.1875 C 35.011719 -17.535156 35.175781 -16.824219 35.175781 -16.171875 C 35.175781 -14.863281 34.632812 -13.722656 33.597656 -12.742188 Z M 33.597656 -12.742188 "/></g></g></g><g fill="#ffc1b2" fill-opacity="0.502"><g transform="translate(54.562414, 220.862699)"><g><path d="M 41.164062 -45.628906 C 39.097656 -48.351562 36.644531 -50.421875 33.921875 -51.890625 C 31.144531 -53.308594 28.261719 -54.070312 25.210938 -54.070312 C 22.160156 -54.070312 19.222656 -53.308594 16.445312 -51.890625 C 13.667969 -50.421875 11.269531 -48.351562 9.203125 -45.628906 C 7.242188 -43.070312 5.773438 -40.183594 4.792969 -37.027344 C 3.757812 -33.867188 3.265625 -30.492188 3.265625 -27.007812 C 3.265625 -23.523438 3.757812 -20.148438 4.792969 -16.988281 C 5.773438 -13.777344 7.242188 -10.945312 9.203125 -8.441406 C 11.269531 -5.71875 13.667969 -3.59375 16.445312 -2.179688 C 19.222656 -0.707031 22.160156 0 25.210938 0 C 28.261719 0 31.144531 -0.707031 33.921875 -2.179688 C 36.644531 -3.59375 39.097656 -5.71875 41.164062 -8.441406 C 43.125 -10.945312 44.59375 -13.777344 45.628906 -16.988281 C 46.609375 -20.148438 47.15625 -23.523438 47.15625 -27.007812 C 47.15625 -30.492188 46.609375 -33.867188 45.628906 -37.027344 C 44.59375 -40.183594 43.125 -43.070312 41.164062 -45.628906 Z M 25.210938 -10.78125 C 23.6875 -10.78125 22.214844 -11.21875 20.910156 -12.089844 C 19.546875 -12.960938 18.351562 -14.101562 17.371094 -15.574219 C 16.335938 -17.042969 15.519531 -18.785156 14.917969 -20.746094 C 14.320312 -22.707031 14.046875 -24.773438 14.046875 -27.007812 C 14.046875 -29.1875 14.320312 -31.308594 14.917969 -33.269531 C 15.519531 -35.230469 16.335938 -36.917969 17.371094 -38.441406 C 18.351562 -39.914062 19.546875 -41.109375 20.910156 -41.980469 C 22.214844 -42.851562 23.6875 -43.289062 25.210938 -43.289062 C 26.734375 -43.289062 28.152344 -42.851562 29.511719 -41.980469 C 30.820312 -41.109375 32.015625 -39.914062 32.996094 -38.441406 C 33.976562 -36.917969 34.792969 -35.230469 35.394531 -33.269531 C 35.992188 -31.308594 36.320312 -29.1875 36.320312 -27.007812 C 36.320312 -24.773438 35.992188 -22.707031 35.394531 -20.746094 C 34.792969 -18.785156 33.976562 -17.042969 32.996094 -15.574219 C 32.015625 -14.101562 30.820312 -12.960938 29.511719 -12.089844 C 28.152344 -11.21875 26.734375 -10.78125 25.210938 -10.78125 Z M 25.210938 -10.78125 "/></g></g></g><g fill="#ffc1b2" fill-opacity="0.502"><g transform="translate(104.983775, 220.862699)"><g><path d="M 41.164062 -45.628906 C 39.097656 -48.351562 36.644531 -50.421875 33.921875 -51.890625 C 31.144531 -53.308594 28.261719 -54.070312 25.210938 -54.070312 C 22.160156 -54.070312 19.222656 -53.308594 16.445312 -51.890625 C 13.667969 -50.421875 11.269531 -48.351562 9.203125 -45.628906 C 7.242188 -43.070312 5.773438 -40.183594 4.792969 -37.027344 C 3.757812 -33.867188 3.265625 -30.492188 3.265625 -27.007812 C 3.265625 -23.523438 3.757812 -20.148438 4.792969 -16.988281 C 5.773438 -13.777344 7.242188 -10.945312 9.203125 -8.441406 C 11.269531 -5.71875 13.667969 -3.59375 16.445312 -2.179688 C 19.222656 -0.707031 22.160156 0 25.210938 0 C 28.261719 0 31.144531 -0.707031 33.921875 -2.179688 C 36.644531 -3.59375 39.097656 -5.71875 41.164062 -8.441406 C 43.125 -10.945312 44.59375 -13.777344 45.628906 -16.988281 C 46.609375 -20.148438 47.15625 -23.523438 47.15625 -27.007812 C 47.15625 -30.492188 46.609375 -33.867188 45.628906 -37.027344 C 44.59375 -40.183594 43.125 -43.070312 41.164062 -45.628906 Z M 25.210938 -10.78125 C 23.6875 -10.78125 22.214844 -11.21875 20.910156 -12.089844 C 19.546875 -12.960938 18.351562 -14.101562 17.371094 -15.574219 C 16.335938 -17.042969 15.519531 -18.785156 14.917969 -20.746094 C 14.320312 -22.707031 14.046875 -24.773438 14.046875 -27.007812 C 14.046875 -29.1875 14.320312 -31.308594 14.917969 -33.269531 C 15.519531 -35.230469 16.335938 -36.917969 17.371094 -38.441406 C 18.351562 -39.914062 19.546875 -41.109375 20.910156 -41.980469 C 22.214844 -42.851562 23.6875 -43.289062 25.210938 -43.289062 C 26.734375 -43.289062 28.152344 -42.851562 29.511719 -41.980469 C 30.820312 -41.109375 32.015625 -39.914062 32.996094 -38.441406 C 33.976562 -36.917969 34.792969 -35.230469 35.394531 -33.269531 C 35.992188 -31.308594 36.320312 -29.1875 36.320312 -27.007812 C 36.320312 -24.773438 35.992188 -22.707031 35.394531 -20.746094 C 34.792969 -18.785156 33.976562 -17.042969 32.996094 -15.574219 C 32.015625 -14.101562 30.820312 -12.960938 29.511719 -12.089844 C 28.152344 -11.21875 26.734375 -10.78125 25.210938 -10.78125 Z M 25.210938 -10.78125 "/></g></g></g><g fill="#ffc1b2" fill-opacity="0.502"><g transform="translate(155.405137, 220.862699)"><g><path d="M 39.585938 -12.035156 L 38.933594 -11.488281 C 38.332031 -10.945312 37.679688 -10.726562 36.972656 -10.726562 L 20.09375 -10.726562 C 19.710938 -10.726562 19.382812 -10.835938 19.167969 -11.054688 C 18.894531 -11.269531 18.785156 -11.597656 18.785156 -12.035156 L 18.785156 -49.277344 C 18.785156 -50.53125 19.222656 -51.675781 20.09375 -52.65625 L 20.148438 -52.707031 C 20.308594 -52.980469 20.308594 -53.253906 20.203125 -53.578125 C 20.039062 -53.851562 19.765625 -54.015625 19.4375 -54.015625 L 7.40625 -54.015625 C 7.023438 -54.015625 6.75 -53.851562 6.644531 -53.578125 C 6.480469 -53.253906 6.480469 -52.980469 6.699219 -52.707031 C 7.570312 -51.730469 8.003906 -50.585938 8.003906 -49.332031 L 8.003906 -1.199219 C 8.003906 -0.816406 8.113281 -0.488281 8.386719 -0.273438 C 8.601562 0 8.929688 0.109375 9.3125 0.109375 L 36.972656 0.109375 C 37.679688 0.109375 38.332031 0.382812 38.933594 0.871094 L 39.585938 1.414062 C 39.859375 1.632812 40.128906 1.632812 40.457031 1.46875 C 40.730469 1.359375 40.894531 1.089844 40.894531 0.707031 L 40.894531 -11.324219 C 40.894531 -11.652344 40.730469 -11.925781 40.457031 -12.089844 C 40.128906 -12.195312 39.859375 -12.195312 39.585938 -12.035156 Z M 39.585938 -12.035156 "/></g></g></g><g fill="#ffc1b2" fill-opacity="0.502"><g transform="translate(199.619125, 220.862699)"><g><path d="M 39.585938 -55.429688 C 38.605469 -54.558594 37.515625 -54.125 36.210938 -54.125 L 7.40625 -54.125 C 7.023438 -54.125 6.75 -53.960938 6.644531 -53.632812 C 6.480469 -53.308594 6.480469 -53.035156 6.699219 -52.761719 L 6.75 -52.707031 C 7.625 -51.730469 8.058594 -50.585938 8.058594 -49.332031 L 8.058594 -4.738281 C 8.058594 -3.429688 7.625 -2.339844 6.75 -1.359375 L 6.699219 -1.308594 C 6.480469 -0.980469 6.480469 -0.707031 6.644531 -0.4375 C 6.75 -0.109375 7.023438 0 7.40625 0 L 19.4375 0 C 19.765625 0 20.039062 -0.109375 20.203125 -0.4375 C 20.308594 -0.707031 20.308594 -0.980469 20.148438 -1.308594 C 19.277344 -2.285156 18.839844 -3.375 18.839844 -4.683594 L 18.839844 -20.527344 C 18.839844 -20.800781 18.949219 -21.074219 19.167969 -21.289062 C 19.382812 -21.507812 19.65625 -21.671875 19.984375 -21.671875 L 25.046875 -21.671875 C 26.355469 -21.671875 27.445312 -21.179688 28.367188 -20.308594 L 28.421875 -20.308594 C 28.695312 -20.09375 28.96875 -20.09375 29.292969 -20.253906 C 29.621094 -20.363281 29.785156 -20.636719 29.785156 -21.019531 L 29.785156 -33.050781 C 29.785156 -33.378906 29.621094 -33.652344 29.292969 -33.8125 C 28.96875 -33.976562 28.695312 -33.976562 28.421875 -33.757812 C 27.445312 -32.886719 26.355469 -32.453125 25.046875 -32.453125 L 19.984375 -32.453125 C 19.65625 -32.453125 19.382812 -32.5625 19.167969 -32.78125 C 18.949219 -32.996094 18.839844 -33.269531 18.839844 -33.597656 L 18.839844 -42.144531 C 18.839844 -42.472656 18.949219 -42.746094 19.167969 -42.960938 C 19.382812 -43.179688 19.65625 -43.289062 19.984375 -43.289062 L 36.210938 -43.289062 C 37.515625 -43.289062 38.605469 -42.851562 39.585938 -41.980469 C 39.859375 -41.765625 40.128906 -41.765625 40.457031 -41.925781 C 40.785156 -42.035156 40.949219 -42.308594 40.949219 -42.691406 L 40.949219 -54.722656 C 40.949219 -55.050781 40.785156 -55.324219 40.457031 -55.484375 C 40.128906 -55.59375 39.859375 -55.59375 39.585938 -55.429688 Z M 39.585938 -55.429688 "/></g></g></g><g fill="#ffc1b2" fill-opacity="0.502"><g transform="translate(243.88756, 220.862699)"><g><path d="M 39.585938 -12.035156 L 38.933594 -11.488281 C 38.332031 -10.945312 37.679688 -10.726562 36.972656 -10.726562 L 20.09375 -10.726562 C 19.710938 -10.726562 19.382812 -10.835938 19.167969 -11.054688 C 18.894531 -11.269531 18.785156 -11.597656 18.785156 -12.035156 L 18.785156 -49.277344 C 18.785156 -50.53125 19.222656 -51.675781 20.09375 -52.65625 L 20.148438 -52.707031 C 20.308594 -52.980469 20.308594 -53.253906 20.203125 -53.578125 C 20.039062 -53.851562 19.765625 -54.015625 19.4375 -54.015625 L 7.40625 -54.015625 C 7.023438 -54.015625 6.75 -53.851562 6.644531 -53.578125 C 6.480469 -53.253906 6.480469 -52.980469 6.699219 -52.707031 C 7.570312 -51.730469 8.003906 -50.585938 8.003906 -49.332031 L 8.003906 -1.199219 C 8.003906 -0.816406 8.113281 -0.488281 8.386719 -0.273438 C 8.601562 0 8.929688 0.109375 9.3125 0.109375 L 36.972656 0.109375 C 37.679688 0.109375 38.332031 0.382812 38.933594 0.871094 L 39.585938 1.414062 C 39.859375 1.632812 40.128906 1.632812 40.457031 1.46875 C 40.730469 1.359375 40.894531 1.089844 40.894531 0.707031 L 40.894531 -11.324219 C 40.894531 -11.652344 40.730469 -11.925781 40.457031 -12.089844 C 40.128906 -12.195312 39.859375 -12.195312 39.585938 -12.035156 Z M 39.585938 -12.035156 "/></g></g></g><g fill="#ffc1b2" fill-opacity="0.502"><g transform="translate(288.101534, 220.862699)"><g><path d="M 18.839844 -4.792969 L 18.839844 -49.332031 C 18.839844 -50.640625 19.277344 -51.78125 20.148438 -52.761719 C 20.308594 -53.035156 20.308594 -53.308594 20.203125 -53.632812 C 20.039062 -53.960938 19.765625 -54.125 19.4375 -54.125 L 7.40625 -54.125 C 7.023438 -54.125 6.75 -53.960938 6.644531 -53.632812 C 6.480469 -53.308594 6.480469 -53.035156 6.699219 -52.761719 C 7.570312 -51.78125 8.058594 -50.640625 8.058594 -49.332031 L 8.058594 -4.792969 C 8.058594 -3.484375 7.570312 -2.339844 6.699219 -1.359375 C 6.480469 -1.035156 6.480469 -0.761719 6.644531 -0.4375 C 6.75 -0.109375 7.023438 0 7.40625 0 L 19.4375 0 C 19.765625 0 20.039062 -0.109375 20.203125 -0.4375 C 20.308594 -0.761719 20.308594 -1.035156 20.148438 -1.359375 C 19.710938 -1.796875 19.382812 -2.339844 19.167969 -2.941406 C 18.949219 -3.539062 18.839844 -4.136719 18.839844 -4.792969 Z M 18.839844 -4.792969 "/></g></g></g><g fill="#ffc1b2" fill-opacity="0.502"><g transform="translate(315.000175, 220.862699)"><g><path d="M 49.167969 -1.523438 C 47.753906 -2.613281 46.609375 -3.921875 45.792969 -5.554688 L 35.773438 -24.667969 C 34.957031 -26.246094 34.957031 -27.824219 35.773438 -29.457031 L 45.792969 -48.570312 C 46.609375 -50.148438 47.753906 -51.511719 49.167969 -52.601562 C 49.550781 -52.925781 49.660156 -53.253906 49.441406 -53.632812 C 49.277344 -53.960938 49.007812 -54.125 48.679688 -54.125 L 35.230469 -54.125 C 34.847656 -54.125 34.578125 -53.960938 34.46875 -53.632812 C 34.304688 -53.308594 34.304688 -53.035156 34.523438 -52.761719 C 35.066406 -52.164062 35.121094 -51.511719 34.792969 -50.804688 L 27.933594 -37.679688 C 27.605469 -37.027344 27.0625 -36.753906 26.410156 -36.753906 C 25.699219 -36.753906 25.210938 -37.027344 24.882812 -37.679688 L 18.023438 -50.859375 C 17.804688 -51.128906 17.75 -51.457031 17.804688 -51.835938 C 17.859375 -52.164062 18.023438 -52.492188 18.296875 -52.761719 C 18.511719 -53.035156 18.511719 -53.308594 18.40625 -53.632812 C 18.296875 -53.960938 18.023438 -54.125 17.695312 -54.125 L 4.136719 -54.125 C 3.757812 -54.125 3.484375 -53.960938 3.375 -53.632812 C 3.265625 -53.417969 3.210938 -53.253906 3.265625 -53.089844 C 3.320312 -52.871094 3.429688 -52.707031 3.59375 -52.601562 L 3.648438 -52.601562 C 5.0625 -51.511719 6.152344 -50.148438 7.023438 -48.570312 L 17.042969 -29.457031 C 17.804688 -27.824219 17.804688 -26.246094 17.042969 -24.667969 L 7.023438 -5.554688 C 6.152344 -3.921875 5.0625 -2.613281 3.648438 -1.523438 L 3.59375 -1.523438 C 3.429688 -1.359375 3.320312 -1.199219 3.265625 -1.035156 C 3.210938 -0.816406 3.265625 -0.652344 3.375 -0.488281 C 3.484375 -0.164062 3.757812 0 4.136719 0 L 17.695312 0 C 18.023438 0 18.296875 -0.109375 18.40625 -0.4375 C 18.511719 -0.761719 18.511719 -1.035156 18.296875 -1.359375 C 18.023438 -1.578125 17.859375 -1.90625 17.804688 -2.285156 C 17.75 -2.613281 17.804688 -2.941406 18.023438 -3.265625 L 24.882812 -16.445312 C 25.210938 -17.042969 25.699219 -17.371094 26.410156 -17.371094 C 27.0625 -17.371094 27.605469 -17.042969 27.933594 -16.445312 L 34.792969 -3.320312 C 35.121094 -2.558594 35.066406 -1.90625 34.523438 -1.359375 C 34.304688 -1.035156 34.304688 -0.761719 34.46875 -0.4375 C 34.578125 -0.109375 34.847656 0 35.230469 0 L 48.679688 0 C 49.007812 0 49.277344 -0.164062 49.441406 -0.488281 C 49.660156 -0.816406 49.550781 -1.199219 49.167969 -1.523438 Z M 49.167969 -1.523438 "/></g></g></g><g fill="#ff3131" fill-opacity="1"><g transform="translate(5.691066, 221.474418)"><g><path d="M 40.839844 -27.660156 C 40.621094 -27.824219 40.511719 -28.042969 40.511719 -28.316406 C 40.457031 -28.53125 40.511719 -28.75 40.675781 -28.96875 C 41.601562 -30.273438 42.308594 -31.691406 42.796875 -33.214844 C 43.234375 -34.738281 43.507812 -36.265625 43.507812 -37.84375 C 43.507812 -39.804688 43.070312 -41.820312 42.308594 -43.777344 C 41.492188 -45.738281 40.292969 -47.480469 38.714844 -49.007812 C 37.136719 -50.53125 35.175781 -51.730469 32.835938 -52.707031 C 30.492188 -53.632812 27.769531 -54.125 24.722656 -54.125 L 7.351562 -54.125 C 6.96875 -54.125 6.699219 -53.960938 6.589844 -53.632812 C 6.425781 -53.308594 6.480469 -52.980469 6.75 -52.761719 C 7.730469 -51.675781 8.277344 -50.367188 8.277344 -48.898438 L 8.277344 -5.226562 C 8.277344 -3.703125 7.730469 -2.394531 6.75 -1.308594 C 6.535156 -0.980469 6.535156 -0.707031 6.699219 -0.4375 C 6.804688 -0.109375 7.078125 0 7.460938 0 L 27.171875 0 C 30.21875 0 32.941406 -0.4375 35.285156 -1.359375 C 37.625 -2.285156 39.585938 -3.539062 41.164062 -5.0625 C 42.746094 -6.589844 43.941406 -8.277344 44.757812 -10.238281 C 45.519531 -12.144531 45.957031 -14.101562 45.957031 -16.171875 C 45.957031 -18.351562 45.464844 -20.417969 44.59375 -22.378906 C 43.722656 -24.339844 42.472656 -26.136719 40.839844 -27.660156 Z M 19.058594 -34.304688 L 19.058594 -41.4375 C 19.058594 -41.925781 19.222656 -42.363281 19.601562 -42.746094 C 19.984375 -43.070312 20.417969 -43.289062 20.964844 -43.289062 L 24.722656 -43.289062 C 26.082031 -43.289062 27.28125 -43.125 28.316406 -42.796875 C 29.292969 -42.472656 30.164062 -42.089844 30.820312 -41.601562 C 31.472656 -41.054688 31.910156 -40.511719 32.234375 -39.859375 C 32.5625 -39.203125 32.726562 -38.496094 32.726562 -37.84375 C 32.726562 -36.480469 32.179688 -35.339844 31.144531 -34.414062 C 29.730469 -33.105469 27.550781 -32.453125 24.722656 -32.453125 L 20.964844 -32.453125 C 20.417969 -32.453125 19.984375 -32.617188 19.601562 -32.996094 C 19.222656 -33.324219 19.058594 -33.757812 19.058594 -34.304688 Z M 33.597656 -12.742188 C 32.179688 -11.433594 30.003906 -10.78125 27.171875 -10.78125 L 20.964844 -10.78125 C 20.417969 -10.78125 19.984375 -10.945312 19.601562 -11.324219 C 19.222656 -11.652344 19.058594 -12.144531 19.058594 -12.6875 L 19.058594 -19.765625 C 19.058594 -20.253906 19.222656 -20.691406 19.601562 -21.074219 C 19.984375 -21.453125 20.417969 -21.671875 20.964844 -21.671875 L 27.171875 -21.671875 C 28.53125 -21.671875 29.730469 -21.507812 30.710938 -21.179688 C 31.691406 -20.855469 32.5625 -20.417969 33.214844 -19.929688 C 33.867188 -19.382812 34.359375 -18.839844 34.683594 -18.1875 C 35.011719 -17.535156 35.175781 -16.824219 35.175781 -16.171875 C 35.175781 -14.863281 34.632812 -13.722656 33.597656 -12.742188 Z M 33.597656 -12.742188 "/></g></g></g><g fill="#ff3131" fill-opacity="1"><g transform="translate(56.003527, 221.474418)"><g><path d="M 41.164062 -45.628906 C 39.097656 -48.351562 36.644531 -50.421875 33.921875 -51.890625 C 31.144531 -53.308594 28.261719 -54.070312 25.210938 -54.070312 C 22.160156 -54.070312 19.222656 -53.308594 16.445312 -51.890625 C 13.667969 -50.421875 11.269531 -48.351562 9.203125 -45.628906 C 7.242188 -43.070312 5.773438 -40.183594 4.792969 -37.027344 C 3.757812 -33.867188 3.265625 -30.492188 3.265625 -27.007812 C 3.265625 -23.523438 3.757812 -20.148438 4.792969 -16.988281 C 5.773438 -13.777344 7.242188 -10.945312 9.203125 -8.441406 C 11.269531 -5.71875 13.667969 -3.59375 16.445312 -2.179688 C 19.222656 -0.707031 22.160156 0 25.210938 0 C 28.261719 0 31.144531 -0.707031 33.921875 -2.179688 C 36.644531 -3.59375 39.097656 -5.71875 41.164062 -8.441406 C 43.125 -10.945312 44.59375 -13.777344 45.628906 -16.988281 C 46.609375 -20.148438 47.15625 -23.523438 47.15625 -27.007812 C 47.15625 -30.492188 46.609375 -33.867188 45.628906 -37.027344 C 44.59375 -40.183594 43.125 -43.070312 41.164062 -45.628906 Z M 25.210938 -10.78125 C 23.6875 -10.78125 22.214844 -11.21875 20.910156 -12.089844 C 19.546875 -12.960938 18.351562 -14.101562 17.371094 -15.574219 C 16.335938 -17.042969 15.519531 -18.785156 14.917969 -20.746094 C 14.320312 -22.707031 14.046875 -24.773438 14.046875 -27.007812 C 14.046875 -29.1875 14.320312 -31.308594 14.917969 -33.269531 C 15.519531 -35.230469 16.335938 -36.917969 17.371094 -38.441406 C 18.351562 -39.914062 19.546875 -41.109375 20.910156 -41.980469 C 22.214844 -42.851562 23.6875 -43.289062 25.210938 -43.289062 C 26.734375 -43.289062 28.152344 -42.851562 29.511719 -41.980469 C 30.820312 -41.109375 32.015625 -39.914062 32.996094 -38.441406 C 33.976562 -36.917969 34.792969 -35.230469 35.394531 -33.269531 C 35.992188 -31.308594 36.320312 -29.1875 36.320312 -27.007812 C 36.320312 -24.773438 35.992188 -22.707031 35.394531 -20.746094 C 34.792969 -18.785156 33.976562 -17.042969 32.996094 -15.574219 C 32.015625 -14.101562 30.820312 -12.960938 29.511719 -12.089844 C 28.152344 -11.21875 26.734375 -10.78125 25.210938 -10.78125 Z M 25.210938 -10.78125 "/></g></g></g><g fill="#ff3131" fill-opacity="1"><g transform="translate(106.424889, 221.474418)"><g><path d="M 41.164062 -45.628906 C 39.097656 -48.351562 36.644531 -50.421875 33.921875 -51.890625 C 31.144531 -53.308594 28.261719 -54.070312 25.210938 -54.070312 C 22.160156 -54.070312 19.222656 -53.308594 16.445312 -51.890625 C 13.667969 -50.421875 11.269531 -48.351562 9.203125 -45.628906 C 7.242188 -43.070312 5.773438 -40.183594 4.792969 -37.027344 C 3.757812 -33.867188 3.265625 -30.492188 3.265625 -27.007812 C 3.265625 -23.523438 3.757812 -20.148438 4.792969 -16.988281 C 5.773438 -13.777344 7.242188 -10.945312 9.203125 -8.441406 C 11.269531 -5.71875 13.667969 -3.59375 16.445312 -2.179688 C 19.222656 -0.707031 22.160156 0 25.210938 0 C 28.261719 0 31.144531 -0.707031 33.921875 -2.179688 C 36.644531 -3.59375 39.097656 -5.71875 41.164062 -8.441406 C 43.125 -10.945312 44.59375 -13.777344 45.628906 -16.988281 C 46.609375 -20.148438 47.15625 -23.523438 47.15625 -27.007812 C 47.15625 -30.492188 46.609375 -33.867188 45.628906 -37.027344 C 44.59375 -40.183594 43.125 -43.070312 41.164062 -45.628906 Z M 25.210938 -10.78125 C 23.6875 -10.78125 22.214844 -11.21875 20.910156 -12.089844 C 19.546875 -12.960938 18.351562 -14.101562 17.371094 -15.574219 C 16.335938 -17.042969 15.519531 -18.785156 14.917969 -20.746094 C 14.320312 -22.707031 14.046875 -24.773438 14.046875 -27.007812 C 14.046875 -29.1875 14.320312 -31.308594 14.917969 -33.269531 C 15.519531 -35.230469 16.335938 -36.917969 17.371094 -38.441406 C 18.351562 -39.914062 19.546875 -41.109375 20.910156 -41.980469 C 22.214844 -42.851562 23.6875 -43.289062 25.210938 -43.289062 C 26.734375 -43.289062 28.152344 -42.851562 29.511719 -41.980469 C 30.820312 -41.109375 32.015625 -39.914062 32.996094 -38.441406 C 33.976562 -36.917969 34.792969 -35.230469 35.394531 -33.269531 C 35.992188 -31.308594 36.320312 -29.1875 36.320312 -27.007812 C 36.320312 -24.773438 35.992188 -22.707031 35.394531 -20.746094 C 34.792969 -18.785156 33.976562 -17.042969 32.996094 -15.574219 C 32.015625 -14.101562 30.820312 -12.960938 29.511719 -12.089844 C 28.152344 -11.21875 26.734375 -10.78125 25.210938 -10.78125 Z M 25.210938 -10.78125 "/></g></g></g><g fill="#ff3131" fill-opacity="1"><g transform="translate(156.846251, 221.474418)"><g><path d="M 39.585938 -12.035156 L 38.933594 -11.488281 C 38.332031 -10.945312 37.679688 -10.726562 36.972656 -10.726562 L 20.09375 -10.726562 C 19.710938 -10.726562 19.382812 -10.835938 19.167969 -11.054688 C 18.894531 -11.269531 18.785156 -11.597656 18.785156 -12.035156 L 18.785156 -49.277344 C 18.785156 -50.53125 19.222656 -51.675781 20.09375 -52.65625 L 20.148438 -52.707031 C 20.308594 -52.980469 20.308594 -53.253906 20.203125 -53.578125 C 20.039062 -53.851562 19.765625 -54.015625 19.4375 -54.015625 L 7.40625 -54.015625 C 7.023438 -54.015625 6.75 -53.851562 6.644531 -53.578125 C 6.480469 -53.253906 6.480469 -52.980469 6.699219 -52.707031 C 7.570312 -51.730469 8.003906 -50.585938 8.003906 -49.332031 L 8.003906 -1.199219 C 8.003906 -0.816406 8.113281 -0.488281 8.386719 -0.273438 C 8.601562 0 8.929688 0.109375 9.3125 0.109375 L 36.972656 0.109375 C 37.679688 0.109375 38.332031 0.382812 38.933594 0.871094 L 39.585938 1.414062 C 39.859375 1.632812 40.128906 1.632812 40.457031 1.46875 C 40.730469 1.359375 40.894531 1.089844 40.894531 0.707031 L 40.894531 -11.324219 C 40.894531 -11.652344 40.730469 -11.925781 40.457031 -12.089844 C 40.128906 -12.195312 39.859375 -12.195312 39.585938 -12.035156 Z M 39.585938 -12.035156 "/></g></g></g><g fill="#ff3131" fill-opacity="1"><g transform="translate(201.060239, 221.474418)"><g><path d="M 39.585938 -55.429688 C 38.605469 -54.558594 37.515625 -54.125 36.210938 -54.125 L 7.40625 -54.125 C 7.023438 -54.125 6.75 -53.960938 6.644531 -53.632812 C 6.480469 -53.308594 6.480469 -53.035156 6.699219 -52.761719 L 6.75 -52.707031 C 7.625 -51.730469 8.058594 -50.585938 8.058594 -49.332031 L 8.058594 -4.738281 C 8.058594 -3.429688 7.625 -2.339844 6.75 -1.359375 L 6.699219 -1.308594 C 6.480469 -0.980469 6.480469 -0.707031 6.644531 -0.4375 C 6.75 -0.109375 7.023438 0 7.40625 0 L 19.4375 0 C 19.765625 0 20.039062 -0.109375 20.203125 -0.4375 C 20.308594 -0.707031 20.308594 -0.980469 20.148438 -1.308594 C 19.277344 -2.285156 18.839844 -3.375 18.839844 -4.683594 L 18.839844 -20.527344 C 18.839844 -20.800781 18.949219 -21.074219 19.167969 -21.289062 C 19.382812 -21.507812 19.65625 -21.671875 19.984375 -21.671875 L 25.046875 -21.671875 C 26.355469 -21.671875 27.445312 -21.179688 28.367188 -20.308594 L 28.421875 -20.308594 C 28.695312 -20.09375 28.96875 -20.09375 29.292969 -20.253906 C 29.621094 -20.363281 29.785156 -20.636719 29.785156 -21.019531 L 29.785156 -33.050781 C 29.785156 -33.378906 29.621094 -33.652344 29.292969 -33.8125 C 28.96875 -33.976562 28.695312 -33.976562 28.421875 -33.757812 C 27.445312 -32.886719 26.355469 -32.453125 25.046875 -32.453125 L 19.984375 -32.453125 C 19.65625 -32.453125 19.382812 -32.5625 19.167969 -32.78125 C 18.949219 -32.996094 18.839844 -33.269531 18.839844 -33.597656 L 18.839844 -42.144531 C 18.839844 -42.472656 18.949219 -42.746094 19.167969 -42.960938 C 19.382812 -43.179688 19.65625 -43.289062 19.984375 -43.289062 L 36.210938 -43.289062 C 37.515625 -43.289062 38.605469 -42.851562 39.585938 -41.980469 C 39.859375 -41.765625 40.128906 -41.765625 40.457031 -41.925781 C 40.785156 -42.035156 40.949219 -42.308594 40.949219 -42.691406 L 40.949219 -54.722656 C 40.949219 -55.050781 40.785156 -55.324219 40.457031 -55.484375 C 40.128906 -55.59375 39.859375 -55.59375 39.585938 -55.429688 Z M 39.585938 -55.429688 "/></g></g></g><g fill="#ff3131" fill-opacity="1"><g transform="translate(245.328673, 221.474418)"><g><path d="M 39.585938 -12.035156 L 38.933594 -11.488281 C 38.332031 -10.945312 37.679688 -10.726562 36.972656 -10.726562 L 20.09375 -10.726562 C 19.710938 -10.726562 19.382812 -10.835938 19.167969 -11.054688 C 18.894531 -11.269531 18.785156 -11.597656 18.785156 -12.035156 L 18.785156 -49.277344 C 18.785156 -50.53125 19.222656 -51.675781 20.09375 -52.65625 L 20.148438 -52.707031 C 20.308594 -52.980469 20.308594 -53.253906 20.203125 -53.578125 C 20.039062 -53.851562 19.765625 -54.015625 19.4375 -54.015625 L 7.40625 -54.015625 C 7.023438 -54.015625 6.75 -53.851562 6.644531 -53.578125 C 6.480469 -53.253906 6.480469 -52.980469 6.699219 -52.707031 C 7.570312 -51.730469 8.003906 -50.585938 8.003906 -49.332031 L 8.003906 -1.199219 C 8.003906 -0.816406 8.113281 -0.488281 8.386719 -0.273438 C 8.601562 0 8.929688 0.109375 9.3125 0.109375 L 36.972656 0.109375 C 37.679688 0.109375 38.332031 0.382812 38.933594 0.871094 L 39.585938 1.414062 C 39.859375 1.632812 40.128906 1.632812 40.457031 1.46875 C 40.730469 1.359375 40.894531 1.089844 40.894531 0.707031 L 40.894531 -11.324219 C 40.894531 -11.652344 40.730469 -11.925781 40.457031 -12.089844 C 40.128906 -12.195312 39.859375 -12.195312 39.585938 -12.035156 Z M 39.585938 -12.035156 "/></g></g></g><g fill="#ff3131" fill-opacity="1"><g transform="translate(289.542648, 221.474418)"><g><path d="M 18.839844 -4.792969 L 18.839844 -49.332031 C 18.839844 -50.640625 19.277344 -51.78125 20.148438 -52.761719 C 20.308594 -53.035156 20.308594 -53.308594 20.203125 -53.632812 C 20.039062 -53.960938 19.765625 -54.125 19.4375 -54.125 L 7.40625 -54.125 C 7.023438 -54.125 6.75 -53.960938 6.644531 -53.632812 C 6.480469 -53.308594 6.480469 -53.035156 6.699219 -52.761719 C 7.570312 -51.78125 8.058594 -50.640625 8.058594 -49.332031 L 8.058594 -4.792969 C 8.058594 -3.484375 7.570312 -2.339844 6.699219 -1.359375 C 6.480469 -1.035156 6.480469 -0.761719 6.644531 -0.4375 C 6.75 -0.109375 7.023438 0 7.40625 0 L 19.4375 0 C 19.765625 0 20.039062 -0.109375 20.203125 -0.4375 C 20.308594 -0.761719 20.308594 -1.035156 20.148438 -1.359375 C 19.710938 -1.796875 19.382812 -2.339844 19.167969 -2.941406 C 18.949219 -3.539062 18.839844 -4.136719 18.839844 -4.792969 Z M 18.839844 -4.792969 "/></g></g></g><g fill="#ff3131" fill-opacity="1"><g transform="translate(316.441289, 221.474418)"><g><path d="M 49.167969 -1.523438 C 47.753906 -2.613281 46.609375 -3.921875 45.792969 -5.554688 L 35.773438 -24.667969 C 34.957031 -26.246094 34.957031 -27.824219 35.773438 -29.457031 L 45.792969 -48.570312 C 46.609375 -50.148438 47.753906 -51.511719 49.167969 -52.601562 C 49.550781 -52.925781 49.660156 -53.253906 49.441406 -53.632812 C 49.277344 -53.960938 49.007812 -54.125 48.679688 -54.125 L 35.230469 -54.125 C 34.847656 -54.125 34.578125 -53.960938 34.46875 -53.632812 C 34.304688 -53.308594 34.304688 -53.035156 34.523438 -52.761719 C 35.066406 -52.164062 35.121094 -51.511719 34.792969 -50.804688 L 27.933594 -37.679688 C 27.605469 -37.027344 27.0625 -36.753906 26.410156 -36.753906 C 25.699219 -36.753906 25.210938 -37.027344 24.882812 -37.679688 L 18.023438 -50.859375 C 17.804688 -51.128906 17.75 -51.457031 17.804688 -51.835938 C 17.859375 -52.164062 18.023438 -52.492188 18.296875 -52.761719 C 18.511719 -53.035156 18.511719 -53.308594 18.40625 -53.632812 C 18.296875 -53.960938 18.023438 -54.125 17.695312 -54.125 L 4.136719 -54.125 C 3.757812 -54.125 3.484375 -53.960938 3.375 -53.632812 C 3.265625 -53.417969 3.210938 -53.253906 3.265625 -53.089844 C 3.320312 -52.871094 3.429688 -52.707031 3.59375 -52.601562 L 3.648438 -52.601562 C 5.0625 -51.511719 6.152344 -50.148438 7.023438 -48.570312 L 17.042969 -29.457031 C 17.804688 -27.824219 17.804688 -26.246094 17.042969 -24.667969 L 7.023438 -5.554688 C 6.152344 -3.921875 5.0625 -2.613281 3.648438 -1.523438 L 3.59375 -1.523438 C 3.429688 -1.359375 3.320312 -1.199219 3.265625 -1.035156 C 3.210938 -0.816406 3.265625 -0.652344 3.375 -0.488281 C 3.484375 -0.164062 3.757812 0 4.136719 0 L 17.695312 0 C 18.023438 0 18.296875 -0.109375 18.40625 -0.4375 C 18.511719 -0.761719 18.511719 -1.035156 18.296875 -1.359375 C 18.023438 -1.578125 17.859375 -1.90625 17.804688 -2.285156 C 17.75 -2.613281 17.804688 -2.941406 18.023438 -3.265625 L 24.882812 -16.445312 C 25.210938 -17.042969 25.699219 -17.371094 26.410156 -17.371094 C 27.0625 -17.371094 27.605469 -17.042969 27.933594 -16.445312 L 34.792969 -3.320312 C 35.121094 -2.558594 35.066406 -1.90625 34.523438 -1.359375 C 34.304688 -1.035156 34.304688 -0.761719 34.46875 -0.4375 C 34.578125 -0.109375 34.847656 0 35.230469 0 L 48.679688 0 C 49.007812 0 49.277344 -0.164062 49.441406 -0.488281 C 49.660156 -0.816406 49.550781 -1.199219 49.167969 -1.523438 Z M 49.167969 -1.523438 "/></g></g></g></svg>